M48
;Layer_Color=9474304
;FILE_FORMAT=2:5
INCH,LZ
;TYPE=PLATED
T1F00S00C0.00800
%
T01
X0055Y0015
Y00336
X00675Y00225
X00696Y0014
X00755
X00815Y00141
X00875Y00125
X00853Y0022
X00913Y00222
X00972Y00223
X0103Y00225
X01089
X012
X0117Y00141
X011Y00125
X0126Y0028
X013Y0035
X014Y00405
X0065Y00125
X00598Y00145
X00798Y01121
X00856
X00875
X00885Y01282
X00847Y01295
X00835Y01325
X00925Y01305
Y01265
X0095Y01342
X01Y0134
X01045Y01335
X011Y0133
X01062Y01277
X00995Y0123
X01011Y01185
X0103
X01025Y0142
X0098Y01425
X00947Y0148809
X00887Y01504
X00895Y01555
X00786Y01559
X00767Y01496
X00765Y0145
X0076Y01365
X0065967Y0136433
X00657Y01386
X00576Y01494
X00712Y01244
X00785Y0124
X0108Y01405
X01139Y01416
X0119233Y0141733
X01195Y01439
X0118Y01375
X01097Y01492
X01105Y0156
X01086
X01014Y01562
M30
