G04*
G04 #@! TF.GenerationSoftware,Altium Limited,Altium Designer,22.10.1 (41)*
G04*
G04 Layer_Physical_Order=6*
G04 Layer_Color=16711680*
%FSLAX25Y25*%
%MOIN*%
G70*
G04*
G04 #@! TF.SameCoordinates,B1027B8B-ED15-4388-B4B1-B9FDCE3A8B77*
G04*
G04*
G04 #@! TF.FilePolarity,Positive*
G04*
G01*
G75*
%ADD26C,0.00546*%
%ADD28C,0.00882*%
%ADD29C,0.01500*%
%ADD33R,0.01220X0.02953*%
%ADD34R,0.01000X0.01800*%
G36*
X98284Y142003D02*
X98314Y141958D01*
X98350Y141914D01*
X98383Y141875D01*
X98417Y141842D01*
X98442Y141814D01*
X98453Y141806D01*
X98461Y141798D01*
X98464Y141795D01*
X98466Y141792D01*
X98525Y141745D01*
X98583Y141701D01*
X98638Y141662D01*
X98694Y141632D01*
X98741Y141604D01*
X98760Y141593D01*
X98777Y141585D01*
X98791Y141576D01*
X98802Y141574D01*
X98807Y141568D01*
X98810D01*
Y141341D01*
X98769Y141357D01*
X98727Y141377D01*
X98685Y141396D01*
X98647Y141416D01*
X98613Y141432D01*
X98586Y141446D01*
X98569Y141457D01*
X98566Y141460D01*
X98563D01*
X98514Y141490D01*
X98469Y141521D01*
X98431Y141549D01*
X98400Y141574D01*
X98372Y141593D01*
X98356Y141610D01*
X98342Y141621D01*
X98339Y141623D01*
Y140125D01*
X98104D01*
Y142050D01*
X98256D01*
X98284Y142003D01*
D02*
G37*
G36*
X99563Y140720D02*
Y140662D01*
X99569Y140612D01*
X99572Y140571D01*
X99577Y140538D01*
X99583Y140513D01*
X99586Y140493D01*
X99591Y140482D01*
Y140479D01*
X99602Y140452D01*
X99616Y140429D01*
X99633Y140410D01*
X99647Y140391D01*
X99663Y140380D01*
X99674Y140368D01*
X99683Y140363D01*
X99685Y140360D01*
X99713Y140346D01*
X99741Y140335D01*
X99768Y140330D01*
X99793Y140324D01*
X99818Y140321D01*
X99835Y140319D01*
X99852D01*
X99896Y140321D01*
X99937Y140332D01*
X99971Y140344D01*
X100001Y140360D01*
X100023Y140374D01*
X100040Y140388D01*
X100051Y140396D01*
X100054Y140399D01*
X100068Y140416D01*
X100079Y140435D01*
X100095Y140479D01*
X100112Y140529D01*
X100120Y140579D01*
X100128Y140626D01*
Y140646D01*
X100131Y140662D01*
X100134Y140679D01*
Y140690D01*
Y140695D01*
Y140698D01*
X100364Y140665D01*
Y140612D01*
X100361Y140565D01*
X100353Y140518D01*
X100347Y140477D01*
X100336Y140438D01*
X100325Y140404D01*
X100314Y140371D01*
X100303Y140344D01*
X100289Y140319D01*
X100278Y140296D01*
X100267Y140277D01*
X100256Y140263D01*
X100248Y140252D01*
X100242Y140241D01*
X100239Y140238D01*
X100237Y140235D01*
X100209Y140211D01*
X100181Y140188D01*
X100151Y140169D01*
X100118Y140152D01*
X100054Y140128D01*
X99993Y140111D01*
X99935Y140100D01*
X99913Y140097D01*
X99890Y140094D01*
X99874Y140092D01*
X99849D01*
X99788Y140094D01*
X99732Y140103D01*
X99683Y140114D01*
X99638Y140128D01*
X99602Y140139D01*
X99577Y140150D01*
X99561Y140158D01*
X99555Y140161D01*
X99511Y140188D01*
X99472Y140222D01*
X99442Y140255D01*
X99414Y140285D01*
X99395Y140316D01*
X99381Y140338D01*
X99372Y140355D01*
X99370Y140357D01*
Y140360D01*
X99350Y140416D01*
X99334Y140474D01*
X99322Y140538D01*
X99317Y140598D01*
X99311Y140651D01*
Y140673D01*
X99309Y140695D01*
Y140712D01*
Y140723D01*
Y140731D01*
Y140734D01*
Y142042D01*
X99563D01*
Y140720D01*
D02*
G37*
G36*
X94000Y134791D02*
X93850Y134429D01*
Y133971D01*
X94000Y133609D01*
Y133300D01*
X94274D01*
X94349Y133225D01*
X94771Y133050D01*
X95229D01*
X95500Y133162D01*
X95905Y132966D01*
X96000Y132870D01*
Y124000D01*
X91500D01*
Y139000D01*
X94000D01*
Y134791D01*
D02*
G37*
D26*
X118997Y141733D02*
X119233D01*
X117757Y143659D02*
Y148734D01*
X118077Y143340D02*
X120297D01*
X116711Y143226D02*
Y148301D01*
X117644Y142294D02*
X118437D01*
X119737Y143900D02*
X120297Y143340D01*
X116711Y143226D02*
X117644Y142294D01*
X119500Y143900D02*
X119737D01*
X118437Y142294D02*
X118997Y141733D01*
X117757Y143659D02*
X118077Y143340D01*
X113792Y152700D02*
X117757Y148734D01*
X113358Y151654D02*
X116711Y148301D01*
X104210Y147870D02*
X107994Y151654D01*
X103165Y148303D02*
X107561Y152700D01*
X107994Y151654D02*
X113358D01*
X107561Y152700D02*
X113792D01*
X71673Y136994D02*
X75379Y140700D01*
X94000D02*
X95206Y141906D01*
X74946Y141746D02*
X93567D01*
X94160Y142340D01*
X75379Y140700D02*
X94000D01*
X71240Y138040D02*
X74946Y141746D01*
X94160Y142340D02*
Y143331D01*
X95206Y141906D02*
Y143764D01*
X104248Y146010D02*
X104475Y145783D01*
X104248Y146010D02*
Y146692D01*
X104210Y146730D02*
X104248Y146692D01*
X104210Y146730D02*
Y147870D01*
X102900Y145783D02*
X103127Y146010D01*
Y146692D01*
X103165Y146730D01*
Y148303D01*
X99485Y149986D02*
X103977Y154477D01*
X98440Y150419D02*
X103544Y155523D01*
X103977Y154477D02*
X107865D01*
X99485Y146730D02*
Y149986D01*
X98440Y146730D02*
Y150419D01*
X103544Y155523D02*
X107865D01*
X101590Y123699D02*
Y136253D01*
X101552Y136291D02*
X101590Y136253D01*
X101527Y123637D02*
X101590Y123699D01*
X101325Y137200D02*
X101552Y136973D01*
Y136291D02*
Y136973D01*
X101527Y119185D02*
Y123637D01*
X101100Y118758D02*
X101527Y119185D01*
X101100Y118500D02*
Y118758D01*
X102673Y136291D02*
Y136973D01*
X102900Y137200D01*
X102636Y136253D02*
X102673Y136291D01*
X102636Y123266D02*
Y136253D01*
X102573Y119185D02*
Y123204D01*
X103000Y118500D02*
Y118758D01*
X102573Y119185D02*
X103000Y118758D01*
X102573Y123204D02*
X102636Y123266D01*
X107865Y154477D02*
X109089D01*
X107865Y155523D02*
X108342Y156000D01*
X110500Y155888D02*
Y156000D01*
X108342D02*
X108600D01*
X109089Y154477D02*
X110500Y155888D01*
X98402Y146692D02*
X98440Y146730D01*
X99523Y146010D02*
Y146692D01*
X99485Y146730D02*
X99523Y146692D01*
X93677Y144874D02*
X93714Y144836D01*
X93677Y144874D02*
Y145556D01*
X93450Y145783D02*
X93677Y145556D01*
X93714Y143777D02*
X94160Y143331D01*
X94761Y144210D02*
Y144836D01*
Y144210D02*
X95206Y143764D01*
X93714Y143777D02*
Y144836D01*
X94798Y145556D02*
X95025Y145783D01*
X94798Y144874D02*
Y145556D01*
X94761Y144836D02*
X94798Y144874D01*
X65936Y138600D02*
X66497Y138040D01*
X65700Y138600D02*
X65936D01*
X66203Y136433D02*
X66763Y136994D01*
X65967Y136433D02*
X66203D01*
X66763Y136994D02*
X71673D01*
X66497Y138040D02*
X71240D01*
X98175Y145783D02*
X98402Y146010D01*
Y146692D01*
X99523Y146010D02*
X99750Y145783D01*
X96864Y119723D02*
Y136253D01*
X97910Y119290D02*
Y136253D01*
X95439Y116818D02*
X97910Y119290D01*
X95005Y117864D02*
X96864Y119723D01*
X87073Y113523D02*
X90368Y116818D01*
X87500Y112100D02*
Y112358D01*
X85600D02*
X86027Y112785D01*
X85600Y112100D02*
Y112358D01*
X89934Y117864D02*
X95005D01*
X86027Y113956D02*
X89934Y117864D01*
X90368Y116818D02*
X95439D01*
X87073Y112785D02*
Y113523D01*
X86027Y112785D02*
Y113956D01*
X87073Y112785D02*
X87500Y112358D01*
X97948Y136973D02*
X98175Y137200D01*
X96827Y136291D02*
X96864Y136253D01*
X97910D02*
X97948Y136291D01*
Y136973D01*
X96600Y137200D02*
X96827Y136973D01*
Y136291D02*
Y136973D01*
D28*
X107684Y147184D02*
X109700Y149200D01*
X107625Y145783D02*
X107684Y145842D01*
Y147184D01*
X113932Y145101D02*
X113964Y145133D01*
X113900Y141600D02*
X113932Y141632D01*
X113900Y141600D02*
X118000Y137500D01*
X113900Y137914D02*
X113964Y137849D01*
X113932Y141632D02*
Y145101D01*
X113900Y137914D02*
Y141600D01*
X94582Y148691D02*
X94700Y148809D01*
X91934Y146856D02*
X93768Y148691D01*
X91934Y145842D02*
Y146856D01*
X93768Y148691D02*
X94582D01*
X91875Y145783D02*
X91934Y145842D01*
X83483Y149600D02*
X84000Y149083D01*
X76700Y149600D02*
X83483D01*
X84000Y145783D02*
Y149083D01*
X83531Y152282D02*
X85800Y150013D01*
X90300Y147983D02*
X90817Y148500D01*
X90300Y145783D02*
Y147983D01*
X90817Y148500D02*
X91000D01*
Y154000D01*
X89500Y155500D02*
X91000Y154000D01*
X85575Y130542D02*
Y137200D01*
X84700Y129500D02*
Y129667D01*
X85575Y130542D01*
X83500Y132500D02*
X84000Y133000D01*
Y137200D01*
X95000Y134200D02*
X95012Y134213D01*
Y137188D02*
X95025Y137200D01*
X95012Y134213D02*
Y137188D01*
X109200Y145783D02*
X111000Y143983D01*
X109200Y133800D02*
Y137200D01*
X111000Y139000D02*
Y143983D01*
X109200Y137200D02*
X111000Y139000D01*
X88713Y145796D02*
Y150388D01*
X88700Y150400D02*
X88713Y150388D01*
X107625Y137200D02*
Y140125D01*
X108000Y140500D01*
X76000Y136500D02*
X77350Y137849D01*
X79236D01*
X91875Y134625D02*
Y137200D01*
Y134625D02*
X92000Y134500D01*
X109200Y133800D02*
X110000Y133000D01*
X106050Y145783D02*
X107625D01*
X106050Y134200D02*
Y137200D01*
Y134200D02*
X106200Y134050D01*
Y127700D02*
Y134050D01*
X104475Y133525D02*
X104500Y133500D01*
X104475Y133525D02*
Y137200D01*
X99750Y134250D02*
X100000Y134000D01*
X99750Y134250D02*
Y137200D01*
X101325Y143175D02*
X102500Y142000D01*
X101325Y143175D02*
Y145783D01*
X97333Y143000D02*
X97833Y142500D01*
X98000D01*
X97000Y143000D02*
X97333D01*
X96600Y143400D02*
X97000Y143000D01*
X96600Y143400D02*
Y145783D01*
X76634Y145133D02*
X79236D01*
X76500Y145000D02*
X76634Y145133D01*
X79236Y144267D02*
X79461Y144042D01*
X84848D01*
X79236Y144267D02*
Y145133D01*
X85516Y144710D02*
Y145724D01*
X84848Y144042D02*
X85516Y144710D01*
Y145724D02*
X85575Y145783D01*
X85800Y149400D02*
X87100Y148100D01*
X85800Y149400D02*
Y150013D01*
X60482Y152282D02*
X83531D01*
X87100Y145833D02*
Y148100D01*
X88713Y145796D02*
X88725Y145783D01*
X57600Y149400D02*
X60482Y152282D01*
X140000Y40500D02*
Y52500D01*
X90000Y54500D02*
X138000D01*
X140000Y52500D01*
X71500Y73000D02*
X90000Y54500D01*
X71500Y73000D02*
Y113546D01*
X87150Y129195D01*
Y137200D01*
X79800Y112100D02*
X90300Y122600D01*
X87100Y145833D02*
X87150Y145783D01*
X88725Y128592D02*
Y137200D01*
X88500Y128367D02*
X88725Y128592D01*
X88500Y128200D02*
Y128367D01*
X90300Y122600D02*
Y137200D01*
D29*
X55000Y33600D02*
D03*
X109700Y149200D02*
D03*
X113900Y141600D02*
D03*
X119500Y143900D02*
D03*
X94700Y148809D02*
D03*
X76700Y149600D02*
D03*
X71200Y124400D02*
D03*
X84700Y129500D02*
D03*
X83500Y132500D02*
D03*
X95000Y134200D02*
D03*
X78600Y155900D02*
D03*
X85300Y22000D02*
D03*
X91300Y22200D02*
D03*
X101400Y156200D02*
D03*
X119233Y141733D02*
D03*
X126000Y28000D02*
D03*
X101100Y118500D02*
D03*
X103000D02*
D03*
X89500Y155500D02*
D03*
X88700Y150400D02*
D03*
X108000Y140500D02*
D03*
X78500Y124000D02*
D03*
X110500Y156000D02*
D03*
X108600D02*
D03*
X76000Y136500D02*
D03*
X99500Y123000D02*
D03*
X92500Y126500D02*
D03*
Y130500D02*
D03*
X118000Y137500D02*
D03*
X110000Y133000D02*
D03*
X104500Y133500D02*
D03*
X100000Y134000D02*
D03*
X102500Y142000D02*
D03*
X98000Y142500D02*
D03*
X76500Y145000D02*
D03*
X140000Y40500D02*
D03*
X79800Y112100D02*
D03*
X130000Y35000D02*
D03*
X55000Y15000D02*
D03*
X65000Y12500D02*
D03*
X67500Y22500D02*
D03*
X87500Y12500D02*
D03*
X120000Y22500D02*
D03*
X110000Y12500D02*
D03*
X57600Y149400D02*
D03*
X106200Y127700D02*
D03*
X117000Y14100D02*
D03*
X108900Y22500D02*
D03*
X103000D02*
D03*
X97200Y22300D02*
D03*
X81500Y14100D02*
D03*
X75500Y14000D02*
D03*
X69600D02*
D03*
X59800Y14500D02*
D03*
X65700Y138600D02*
D03*
X65967Y136433D02*
D03*
X88500Y128200D02*
D03*
X87500Y112100D02*
D03*
X85600D02*
D03*
D33*
X113964Y137849D02*
D03*
Y145133D02*
D03*
X79236D02*
D03*
Y137849D02*
D03*
D34*
X109200Y145783D02*
D03*
X107625D02*
D03*
X106050D02*
D03*
X104475D02*
D03*
X102900D02*
D03*
X101325D02*
D03*
X99750D02*
D03*
X98175D02*
D03*
X96600D02*
D03*
X95025D02*
D03*
X93450D02*
D03*
X91875D02*
D03*
X90300D02*
D03*
X88725D02*
D03*
X87150D02*
D03*
X85575D02*
D03*
X84000D02*
D03*
Y137200D02*
D03*
X85575D02*
D03*
X87150D02*
D03*
X88725D02*
D03*
X90300D02*
D03*
X91875D02*
D03*
X93450D02*
D03*
X95025D02*
D03*
X96600D02*
D03*
X98175D02*
D03*
X99750D02*
D03*
X101325D02*
D03*
X102900D02*
D03*
X104475D02*
D03*
X106050D02*
D03*
X107625D02*
D03*
X109200D02*
D03*
M02*
