G04*
G04 #@! TF.GenerationSoftware,Altium Limited,Altium Designer,22.10.1 (41)*
G04*
G04 Layer_Physical_Order=1*
G04 Layer_Color=255*
%FSLAX25Y25*%
%MOIN*%
G70*
G04*
G04 #@! TF.SameCoordinates,B1027B8B-ED15-4388-B4B1-B9FDCE3A8B77*
G04*
G04*
G04 #@! TF.FilePolarity,Positive*
G04*
G01*
G75*
%ADD12R,0.03150X0.01968*%
%ADD13R,0.02362X0.02362*%
%ADD14R,0.01968X0.01968*%
%ADD15R,0.01181X0.02756*%
%ADD16R,0.01181X0.03937*%
%ADD17R,0.01968X0.01968*%
%ADD18C,0.05000*%
%ADD26C,0.00546*%
%ADD27C,0.00546*%
%ADD28C,0.00882*%
%ADD29C,0.01500*%
G36*
X98284Y142003D02*
X98314Y141958D01*
X98350Y141914D01*
X98383Y141875D01*
X98417Y141842D01*
X98442Y141814D01*
X98453Y141806D01*
X98461Y141798D01*
X98464Y141795D01*
X98466Y141792D01*
X98525Y141745D01*
X98583Y141701D01*
X98638Y141662D01*
X98694Y141632D01*
X98741Y141604D01*
X98760Y141593D01*
X98777Y141585D01*
X98791Y141576D01*
X98802Y141574D01*
X98807Y141568D01*
X98810D01*
Y141341D01*
X98769Y141357D01*
X98727Y141377D01*
X98685Y141396D01*
X98647Y141416D01*
X98613Y141432D01*
X98586Y141446D01*
X98569Y141457D01*
X98566Y141460D01*
X98563D01*
X98514Y141490D01*
X98469Y141521D01*
X98431Y141549D01*
X98400Y141574D01*
X98372Y141593D01*
X98356Y141610D01*
X98342Y141621D01*
X98339Y141623D01*
Y140125D01*
X98104D01*
Y142050D01*
X98256D01*
X98284Y142003D01*
D02*
G37*
G36*
X99563Y140720D02*
Y140662D01*
X99569Y140612D01*
X99572Y140571D01*
X99577Y140538D01*
X99583Y140513D01*
X99586Y140493D01*
X99591Y140482D01*
Y140479D01*
X99602Y140452D01*
X99616Y140429D01*
X99633Y140410D01*
X99647Y140391D01*
X99663Y140380D01*
X99674Y140368D01*
X99683Y140363D01*
X99685Y140360D01*
X99713Y140346D01*
X99741Y140335D01*
X99768Y140330D01*
X99793Y140324D01*
X99818Y140321D01*
X99835Y140319D01*
X99852D01*
X99896Y140321D01*
X99937Y140332D01*
X99971Y140344D01*
X100001Y140360D01*
X100023Y140374D01*
X100040Y140388D01*
X100051Y140396D01*
X100054Y140399D01*
X100068Y140416D01*
X100079Y140435D01*
X100095Y140479D01*
X100112Y140529D01*
X100120Y140579D01*
X100128Y140626D01*
Y140646D01*
X100131Y140662D01*
X100134Y140679D01*
Y140690D01*
Y140695D01*
Y140698D01*
X100364Y140665D01*
Y140612D01*
X100361Y140565D01*
X100353Y140518D01*
X100347Y140477D01*
X100336Y140438D01*
X100325Y140404D01*
X100314Y140371D01*
X100303Y140344D01*
X100289Y140319D01*
X100278Y140296D01*
X100267Y140277D01*
X100256Y140263D01*
X100248Y140252D01*
X100242Y140241D01*
X100239Y140238D01*
X100237Y140235D01*
X100209Y140211D01*
X100181Y140188D01*
X100151Y140169D01*
X100118Y140152D01*
X100054Y140128D01*
X99993Y140111D01*
X99935Y140100D01*
X99913Y140097D01*
X99890Y140094D01*
X99874Y140092D01*
X99849D01*
X99788Y140094D01*
X99732Y140103D01*
X99683Y140114D01*
X99638Y140128D01*
X99602Y140139D01*
X99577Y140150D01*
X99561Y140158D01*
X99555Y140161D01*
X99511Y140188D01*
X99472Y140222D01*
X99442Y140255D01*
X99414Y140285D01*
X99395Y140316D01*
X99381Y140338D01*
X99372Y140355D01*
X99370Y140357D01*
Y140360D01*
X99350Y140416D01*
X99334Y140474D01*
X99322Y140538D01*
X99317Y140598D01*
X99311Y140651D01*
Y140673D01*
X99309Y140695D01*
Y140712D01*
Y140723D01*
Y140731D01*
Y140734D01*
Y142042D01*
X99563D01*
Y140720D01*
D02*
G37*
D12*
X45900Y28653D02*
D03*
Y22747D02*
D03*
D13*
X134533Y29100D02*
D03*
X138667D02*
D03*
X138267Y36000D02*
D03*
X134133D02*
D03*
D14*
X96668Y156000D02*
D03*
X92731D02*
D03*
X100469Y126600D02*
D03*
X96531D02*
D03*
X100469Y130700D02*
D03*
X96531D02*
D03*
X85769Y155900D02*
D03*
X81832D02*
D03*
D15*
X105047Y18071D02*
D03*
X107016D02*
D03*
X108984D02*
D03*
X110953D02*
D03*
X118827D02*
D03*
X116858D02*
D03*
X114890D02*
D03*
X112921D02*
D03*
X103079Y18071D02*
D03*
X101110D02*
D03*
X99142Y18071D02*
D03*
X97173D02*
D03*
X95205Y18071D02*
D03*
X93236D02*
D03*
X91268Y18071D02*
D03*
X89299D02*
D03*
X87331Y18071D02*
D03*
X85362D02*
D03*
X83394Y18071D02*
D03*
X81425D02*
D03*
X79457Y18071D02*
D03*
X77488D02*
D03*
X75520D02*
D03*
X73551D02*
D03*
X71583D02*
D03*
X69614D02*
D03*
X67646D02*
D03*
X65677D02*
D03*
X63709D02*
D03*
X61740D02*
D03*
X59772D02*
D03*
X57803D02*
D03*
D16*
X121937Y28504D02*
D03*
X54693D02*
D03*
D17*
X74600Y127232D02*
D03*
Y131168D02*
D03*
X79200Y127331D02*
D03*
Y131269D02*
D03*
D18*
X37400Y33400D02*
D03*
X153100Y31900D02*
D03*
D26*
X133262Y60142D02*
G03*
X136542Y60142I1640J1639D01*
G01*
X133262Y60142D02*
G03*
X131462Y60142I-900J-901D01*
G01*
X131462Y60142D02*
G03*
X131462Y58342I900J-900D01*
G01*
X132878Y53646D02*
G03*
X132878Y56925I-1640J1640D01*
G01*
X129599Y53646D02*
G03*
X132878Y53646I1640J1640D01*
G01*
X124607Y58638D02*
G03*
X122807Y58638I-900J-900D01*
G01*
X122807Y58638D02*
G03*
X122807Y56838I900J-900D01*
G01*
X129147Y47218D02*
G03*
X129147Y50498I-1640J1640D01*
G01*
X125868Y47218D02*
G03*
X129147Y47218I1640J1640D01*
G01*
X119527Y53558D02*
G03*
X117727Y53558I-900J-900D01*
G01*
D02*
G03*
X117727Y51758I900J-900D01*
G01*
X124067Y42138D02*
G03*
X124067Y45418I-1640J1640D01*
G01*
X120788Y42138D02*
G03*
X124067Y42138I1640J1640D01*
G01*
X114448Y48479D02*
G03*
X112647Y48479I-900J-900D01*
G01*
X112647Y48479D02*
G03*
X112647Y46679I900J-900D01*
G01*
X116223Y39823D02*
G03*
X116223Y43103I-1640J1640D01*
G01*
X134002Y60881D02*
G03*
X135802Y60881I900J900D01*
G01*
X134002Y60882D02*
G03*
X130723Y60882I-1640J-1640D01*
G01*
X130722Y60881D02*
G03*
X130723Y57602I1640J-1640D01*
G01*
X132139Y54386D02*
G03*
X132139Y56186I-900J900D01*
G01*
X130339Y54386D02*
G03*
X132139Y54386I900J900D01*
G01*
X125347Y59378D02*
G03*
X122067Y59378I-1640J-1640D01*
G01*
X122067Y59378D02*
G03*
X122067Y56098I1640J-1640D01*
G01*
X128408Y47958D02*
G03*
X128408Y49758I-900J900D01*
G01*
X126607Y47958D02*
G03*
X128408Y47958I900J900D01*
G01*
X120267Y54298D02*
G03*
X116988Y54298I-1640J-1640D01*
G01*
D02*
G03*
X116988Y51019I1640J-1640D01*
G01*
X123328Y42878D02*
G03*
X123328Y44678I-900J900D01*
G01*
X121528Y42878D02*
G03*
X123328Y42878I900J900D01*
G01*
X115187Y49218D02*
G03*
X111908Y49218I-1640J-1640D01*
G01*
X111908Y49218D02*
G03*
X111908Y45939I1640J-1640D01*
G01*
X115484Y40563D02*
G03*
X115484Y42363I-900J900D01*
G01*
X35373Y81950D02*
G03*
X33054Y79631I0J-2319D01*
G01*
X39515Y81950D02*
G03*
X39515Y84496I0J1273D01*
G01*
X33965Y89134D02*
G03*
X33965Y84496I0J-2319D01*
G01*
X41781Y89134D02*
G03*
X41781Y91680I0J1273D01*
G01*
X33965Y96317D02*
G03*
X33965Y91680I0J-2319D01*
G01*
X41781Y96317D02*
G03*
X41781Y98863I0J1273D01*
G01*
X33054Y101182D02*
G03*
X35373Y98863I2319J0D01*
G01*
Y80904D02*
G03*
X34100Y79631I0J-1273D01*
G01*
X39515Y80904D02*
G03*
X39515Y85542I0J2319D01*
G01*
X33965Y88088D02*
G03*
X33965Y85542I0J-1273D01*
G01*
X41781Y88088D02*
G03*
X41781Y92726I0J2319D01*
G01*
X33965Y95271D02*
G03*
X33965Y92726I0J-1273D01*
G01*
X41781Y95271D02*
G03*
X41781Y99909I0J2319D01*
G01*
X34100Y101182D02*
G03*
X35373Y99909I1273J0D01*
G01*
X72044Y45531D02*
G03*
X70771Y46804I-1273J0D01*
G01*
X64977Y49123D02*
G03*
X67296Y46804I2319J0D01*
G01*
Y51441D02*
G03*
X64977Y49123I0J-2319D01*
G01*
X74685Y51441D02*
G03*
X75958Y52714I0J1273D01*
G01*
Y52714D02*
G03*
X74685Y53987I-1273J0D01*
G01*
X62044Y56306D02*
G03*
X64363Y53987I2319J0D01*
G01*
Y58625D02*
G03*
X62044Y56306I0J-2319D01*
G01*
X74685Y58625D02*
G03*
X75958Y59898I0J1273D01*
G01*
Y59898D02*
G03*
X74685Y61171I-1273J0D01*
G01*
X62044Y63490D02*
G03*
X64363Y61171I2319J0D01*
G01*
Y65809D02*
G03*
X62044Y63490I0J-2319D01*
G01*
X74685Y65809D02*
G03*
X75958Y67082I0J1273D01*
G01*
Y67082D02*
G03*
X74685Y68355I-1273J0D01*
G01*
X62044Y70674D02*
G03*
X64363Y68355I2319J0D01*
G01*
Y72992D02*
G03*
X62044Y70674I0J-2319D01*
G01*
X74685Y72992D02*
G03*
X75958Y74265I0J1273D01*
G01*
Y74265D02*
G03*
X74685Y75538I-1273J0D01*
G01*
X62044Y77857D02*
G03*
X64363Y75538I2319J0D01*
G01*
Y80176D02*
G03*
X62044Y77857I0J-2319D01*
G01*
X74685Y80176D02*
G03*
X75958Y81449I0J1273D01*
G01*
Y81449D02*
G03*
X74685Y82722I-1273J0D01*
G01*
X62044Y85041D02*
G03*
X64363Y82722I2319J0D01*
G01*
Y87360D02*
G03*
X62044Y85041I0J-2319D01*
G01*
X74685Y87360D02*
G03*
X75958Y88633I0J1273D01*
G01*
Y88633D02*
G03*
X74685Y89906I-1273J0D01*
G01*
X63313Y92225D02*
G03*
X65631Y89906I2319J0D01*
G01*
Y94543D02*
G03*
X63313Y92225I0J-2319D01*
G01*
X73220Y94543D02*
G03*
X74120Y94916I0J1273D01*
G01*
X73090Y45531D02*
G03*
X70771Y47850I-2319J0D01*
G01*
X66023Y49123D02*
G03*
X67296Y47850I1273J0D01*
G01*
Y50396D02*
G03*
X66023Y49123I0J-1273D01*
G01*
X74685Y50396D02*
G03*
X77004Y52714I0J2319D01*
G01*
Y52714D02*
G03*
X74685Y55033I-2319J0D01*
G01*
X63090Y56306D02*
G03*
X64363Y55033I1273J0D01*
G01*
Y57579D02*
G03*
X63090Y56306I0J-1273D01*
G01*
X74685Y57579D02*
G03*
X77004Y59898I0J2319D01*
G01*
Y59898D02*
G03*
X74685Y62217I-2319J0D01*
G01*
X63090Y63490D02*
G03*
X64363Y62217I1273J0D01*
G01*
Y64763D02*
G03*
X63090Y63490I0J-1273D01*
G01*
X74685Y64763D02*
G03*
X77004Y67082I0J2319D01*
G01*
Y67082D02*
G03*
X74685Y69401I-2319J0D01*
G01*
X63090Y70674D02*
G03*
X64363Y69401I1273J0D01*
G01*
Y71946D02*
G03*
X63090Y70674I0J-1273D01*
G01*
X74685Y71946D02*
G03*
X77004Y74265I0J2319D01*
G01*
Y74265D02*
G03*
X74685Y76584I-2319J0D01*
G01*
X63090Y77857D02*
G03*
X64363Y76584I1273J0D01*
G01*
Y79130D02*
G03*
X63090Y77857I0J-1273D01*
G01*
X74685Y79130D02*
G03*
X77004Y81449I0J2319D01*
G01*
Y81449D02*
G03*
X74685Y83768I-2319J0D01*
G01*
X63090Y85041D02*
G03*
X64363Y83768I1273J0D01*
G01*
Y86314D02*
G03*
X63090Y85041I0J-1273D01*
G01*
X74685Y86314D02*
G03*
X77004Y88633I0J2319D01*
G01*
Y88633D02*
G03*
X74685Y90952I-2319J0D01*
G01*
X64358Y92225D02*
G03*
X65631Y90952I1273J0D01*
G01*
Y93497D02*
G03*
X64358Y92225I0J-1273D01*
G01*
X73220Y93497D02*
G03*
X74860Y94177I0J2319D01*
G01*
X142119Y99856D02*
G03*
X139800Y97537I0J-2319D01*
G01*
X142119Y99856D02*
G03*
X142119Y102401I0J1273D01*
G01*
X133856Y107039D02*
G03*
X133856Y102401I0J-2319D01*
G01*
X148527Y107039D02*
G03*
X148527Y109585I0J1273D01*
G01*
X139800Y111904D02*
G03*
X142119Y109585I2319J0D01*
G01*
Y98810D02*
G03*
X140846Y97537I0J-1273D01*
G01*
X142119Y98810D02*
G03*
X142119Y103447I0J2319D01*
G01*
X133856Y105993D02*
G03*
X133856Y103447I0J-1273D01*
G01*
X148527Y105993D02*
G03*
X148527Y110631I0J2319D01*
G01*
X140846Y111904D02*
G03*
X142119Y110631I1273J0D01*
G01*
X99934Y79668D02*
G03*
X102253Y81986I0J2319D01*
G01*
X93526Y79668D02*
G03*
X92253Y78395I0J-1273D01*
G01*
Y78395D02*
G03*
X93526Y77122I1273J0D01*
G01*
X112253Y74803D02*
G03*
X109934Y77122I-2319J0D01*
G01*
Y72484D02*
G03*
X112253Y74803I0J2319D01*
G01*
X93526Y72484D02*
G03*
X92253Y71211I0J-1273D01*
G01*
Y71211D02*
G03*
X93526Y69938I1273J0D01*
G01*
X112253Y67619D02*
G03*
X109934Y69938I-2319J0D01*
G01*
Y65300D02*
G03*
X112253Y67619I0J2319D01*
G01*
X93526Y65300D02*
G03*
X92253Y64027I0J-1273D01*
G01*
Y64027D02*
G03*
X93526Y62754I1273J0D01*
G01*
X102253Y60435D02*
G03*
X99934Y62754I-2319J0D01*
G01*
Y80713D02*
G03*
X101207Y81986I0J1273D01*
G01*
X93526Y80713D02*
G03*
X91207Y78395I0J-2319D01*
G01*
Y78395D02*
G03*
X93526Y76076I2319J0D01*
G01*
X111207Y74803D02*
G03*
X109934Y76076I-1273J0D01*
G01*
Y73530D02*
G03*
X111207Y74803I0J1273D01*
G01*
X93526Y73530D02*
G03*
X91207Y71211I0J-2319D01*
G01*
Y71211D02*
G03*
X93526Y68892I2319J0D01*
G01*
X111207Y67619D02*
G03*
X109934Y68892I-1273J0D01*
G01*
Y66346D02*
G03*
X111207Y67619I0J1273D01*
G01*
X93526Y66346D02*
G03*
X91207Y64027I0J-2319D01*
G01*
Y64027D02*
G03*
X93526Y61708I2319J0D01*
G01*
X101207Y60435D02*
G03*
X99934Y61708I-1273J0D01*
G01*
X84349Y43128D02*
G03*
X84349Y44928I-900J900D01*
G01*
X79817Y52739D02*
G03*
X79817Y49459I1640J-1640D01*
G01*
X83097Y52739D02*
G03*
X79817Y52739I-1640J-1640D01*
G01*
X94590Y41245D02*
G03*
X96390Y41245I900J900D01*
G01*
D02*
G03*
X96390Y43045I-900J900D01*
G01*
X84897Y57818D02*
G03*
X84897Y54539I1640J-1640D01*
G01*
X88176Y57818D02*
G03*
X84897Y57818I-1640J-1640D01*
G01*
X99670Y46325D02*
G03*
X101470Y46325I900J900D01*
G01*
X101470Y46325D02*
G03*
X101470Y48125I-900J900D01*
G01*
X97048Y55827D02*
G03*
X97051Y52544I1640J-1640D01*
G01*
X85088Y42388D02*
G03*
X85088Y45667I-1640J1640D01*
G01*
X80557Y51999D02*
G03*
X80557Y50199I900J-900D01*
G01*
X82357Y51999D02*
G03*
X80557Y51999I-900J-900D01*
G01*
X93851Y40505D02*
G03*
X97130Y40505I1640J1640D01*
G01*
D02*
G03*
X97130Y43785I-1640J1640D01*
G01*
X85637Y57079D02*
G03*
X85637Y55278I900J-900D01*
G01*
X87437Y57079D02*
G03*
X85637Y57079I-900J-900D01*
G01*
X98930Y45585D02*
G03*
X102210Y45585I1640J1640D01*
G01*
X102210Y45585D02*
G03*
X102210Y48864I-1640J1640D01*
G01*
X97787Y55087D02*
G03*
X97787Y53287I900J-900D01*
G01*
X136542Y60142D02*
X139869Y63469D01*
X131462Y60142D02*
X131462Y60142D01*
X131462Y58342D02*
X131462Y58342D01*
X131462Y58342D02*
X132878Y56925D01*
X129599Y53646D02*
X129599Y53646D01*
X124607Y58638D02*
X129599Y53646D01*
X122807Y58638D02*
X122807Y58638D01*
X122807Y56838D02*
X122807Y56838D01*
X122807Y56838D02*
X129147Y50498D01*
X129147Y47218D02*
X129147Y47218D01*
X125868Y47218D02*
X125868Y47218D01*
X119527Y53558D02*
X125868Y47218D01*
X117727Y51758D02*
X117727Y51758D01*
X117727Y51758D02*
X124067Y45418D01*
X124067Y42138D02*
X124067Y42138D01*
X120788Y42138D02*
X120788Y42138D01*
X114448Y48479D02*
X120788Y42138D01*
X112647Y48479D02*
X112647Y48479D01*
X112647Y46679D02*
X112647Y46679D01*
X112647Y46679D02*
X116223Y43103D01*
X115661Y39261D02*
X116223Y39823D01*
X139129Y64208D02*
Y64208D01*
X135802Y60881D02*
X139129Y64208D01*
X134002Y60882D02*
X134002Y60881D01*
X130722Y60881D02*
X130723Y60882D01*
X130722Y57602D02*
X130723Y57602D01*
X130722Y57602D02*
X132139Y56186D01*
X130339Y54386D02*
X130339Y54386D01*
X125347Y59378D02*
X130339Y54386D01*
X122067Y59378D02*
X122067Y59378D01*
X122067Y56098D02*
X122067Y56098D01*
X122067Y56098D02*
X128408Y49758D01*
X128408Y47958D02*
X128408Y47958D01*
X126607Y47958D02*
X126607Y47958D01*
X120267Y54298D02*
X126607Y47958D01*
X116988Y51019D02*
X116988Y51019D01*
X116988Y51019D02*
X123328Y44678D01*
X123328Y42878D02*
X123328Y42878D01*
X121528Y42878D02*
X121528Y42878D01*
X115187Y49218D02*
X121528Y42878D01*
X111908Y49218D02*
X111908Y49218D01*
X111908Y45939D02*
X111908Y45939D01*
X111908Y45939D02*
X115484Y42363D01*
X114921Y40000D02*
X115484Y40563D01*
X114921Y40000D02*
Y40000D01*
X106555Y30155D02*
X115661Y39261D01*
X105509Y30588D02*
X114921Y40000D01*
X139869Y63469D02*
X140846Y64446D01*
X139129Y64208D02*
X139800Y64879D01*
X33054Y47328D02*
Y79631D01*
X35373Y81950D02*
X39515D01*
X33965Y84496D02*
X39515D01*
X33965Y89134D02*
X41781D01*
X33965Y91680D02*
X41781D01*
X33965Y96317D02*
X41781D01*
X35373Y98863D02*
X41781D01*
X33054Y101182D02*
Y101978D01*
X34100Y47328D02*
Y79631D01*
X35373Y80904D02*
X39515D01*
X33965Y85542D02*
X39515D01*
X33965Y88088D02*
X41781D01*
X33965Y92726D02*
X41781D01*
X33965Y95271D02*
X41781D01*
X35373Y99909D02*
X41781D01*
X34100Y101182D02*
Y101978D01*
X33054Y13967D02*
Y47328D01*
X34100Y14400D02*
Y47328D01*
X33054Y101978D02*
Y105533D01*
X34100Y101978D02*
Y105100D01*
X72044Y40332D02*
Y45531D01*
X67296Y46804D02*
X70771D01*
X64977Y49123D02*
Y49123D01*
X67296Y51441D02*
X74685D01*
X75958Y52714D02*
Y52714D01*
X64363Y53987D02*
X74685D01*
X62044Y56306D02*
Y56306D01*
X64363Y58625D02*
X74685D01*
X75958Y59898D02*
Y59898D01*
X64363Y61171D02*
X74685D01*
X62044Y63490D02*
Y63490D01*
X64363Y65809D02*
X74685D01*
X75958Y67082D02*
Y67082D01*
X64363Y68355D02*
X74685D01*
X62044Y70674D02*
Y70674D01*
X64363Y72992D02*
X74685D01*
X75958Y74265D02*
Y74265D01*
X64363Y75538D02*
X74685D01*
X62044Y77857D02*
Y77857D01*
X64363Y80176D02*
X74685D01*
X75958Y81449D02*
Y81449D01*
X64363Y82722D02*
X74685D01*
X62044Y85041D02*
Y85041D01*
X64363Y87360D02*
X74685D01*
X75958Y88633D02*
Y88633D01*
X65631Y89906D02*
X74685D01*
X63313Y92225D02*
Y92225D01*
X65631Y94543D02*
X73220D01*
X74120Y94916D02*
X81204Y102000D01*
X73090Y40332D02*
Y45531D01*
X67296Y47850D02*
X70771D01*
X66023Y49123D02*
Y49123D01*
X67296Y50396D02*
X74685D01*
X77004Y52714D02*
Y52714D01*
X64363Y55033D02*
X74685D01*
X63090Y56306D02*
Y56306D01*
X64363Y57579D02*
X74685D01*
X77004Y59898D02*
Y59898D01*
X64363Y62217D02*
X74685D01*
X63090Y63490D02*
Y63490D01*
X64363Y64763D02*
X74685D01*
X77004Y67082D02*
Y67082D01*
X64363Y69401D02*
X74685D01*
X63090Y70674D02*
Y70674D01*
X64363Y71946D02*
X74685D01*
X77004Y74265D02*
Y74265D01*
X64363Y76584D02*
X74685D01*
X63090Y77857D02*
Y77857D01*
X64363Y79130D02*
X74685D01*
X77004Y81449D02*
Y81449D01*
X64363Y83768D02*
X74685D01*
X63090Y85041D02*
Y85041D01*
X64363Y86314D02*
X74685D01*
X77004Y88633D02*
Y88633D01*
X65631Y90952D02*
X74685D01*
X64358Y92225D02*
Y92225D01*
X65631Y93497D02*
X73220D01*
X74860Y94177D02*
X82683Y102000D01*
X82683D01*
X139800Y66535D02*
Y97537D01*
X142119Y99856D02*
X142119D01*
X133856Y102401D02*
X142119D01*
X133856Y107039D02*
X148527D01*
X142119Y109585D02*
X148527D01*
X139800Y111904D02*
Y112700D01*
X140846Y66535D02*
Y97537D01*
X142119Y98810D02*
X142119D01*
X133856Y103447D02*
X142119D01*
X133856Y105993D02*
X148527D01*
X142119Y110631D02*
X148527D01*
X140846Y111904D02*
Y112700D01*
X139800Y64879D02*
Y66535D01*
X140846Y64446D02*
Y66535D01*
X102573Y116481D02*
Y117815D01*
X101527Y116915D02*
Y117815D01*
X102253Y81986D02*
Y113770D01*
X93526Y79668D02*
X99934D01*
X92253Y78395D02*
Y78395D01*
X93526Y77122D02*
X109934D01*
X112253Y74803D02*
Y74803D01*
X93526Y72484D02*
X109934D01*
X92253Y71211D02*
Y71211D01*
X93526Y69938D02*
X109934D01*
X112253Y67619D02*
Y67619D01*
X93526Y65300D02*
X109934D01*
X92253Y64027D02*
Y64027D01*
X93526Y62754D02*
X99934D01*
X102253Y59553D02*
Y60435D01*
X100543Y57844D02*
X102253Y59553D01*
X101207Y81986D02*
Y113770D01*
X93526Y80713D02*
X99934D01*
X91207Y78395D02*
Y78395D01*
X93526Y76076D02*
X109934D01*
X111207Y74803D02*
Y74803D01*
X93526Y73530D02*
X109934D01*
X91207Y71211D02*
Y71211D01*
X93526Y68892D02*
X109934D01*
X111207Y67619D02*
Y67619D01*
X93526Y66346D02*
X109934D01*
X91207Y64027D02*
Y64027D01*
X93526Y61708D02*
X99934D01*
X101207Y59986D02*
Y60435D01*
X99064Y57844D02*
X101207Y59986D01*
X99064Y57844D02*
Y57844D01*
X102253Y113770D02*
Y116162D01*
X101207Y113770D02*
Y116595D01*
X102253Y116162D02*
X102573Y116481D01*
X101207Y116595D02*
X101527Y116915D01*
X30700Y107400D02*
X75300Y152000D01*
X108091D02*
X110073Y153981D01*
X107658Y153046D02*
X109027Y154415D01*
X74867Y153046D02*
X107658D01*
X29654Y107833D02*
X74867Y153046D01*
X75300Y152000D02*
X108091D01*
X119500Y143642D02*
Y143900D01*
X120466Y142514D02*
Y142676D01*
X119274Y141774D02*
X119726D01*
X119233Y141733D02*
X119274Y141774D01*
X120466Y142514D02*
X120633Y142346D01*
X120200Y141300D02*
X139480D01*
X120633Y142346D02*
X139913D01*
X119726Y141774D02*
X120200Y141300D01*
X120466Y142514D02*
X120466D01*
X119500Y143642D02*
X120466Y142676D01*
X98350Y55650D02*
X100543Y57844D01*
X97610Y56390D02*
X99064Y57844D01*
X139800Y112700D02*
Y140980D01*
X140846Y112700D02*
Y141413D01*
X80060Y38840D02*
X84349Y43128D01*
X79817Y49459D02*
X84349Y44928D01*
X79817Y49459D02*
X79817Y49459D01*
X79817Y52739D02*
X79817Y52739D01*
X83097D02*
X94590Y41245D01*
X94590Y41245D01*
X84897Y54539D02*
X96390Y43045D01*
X84897Y54539D02*
X84897Y54539D01*
X84897Y57818D02*
X84897Y57818D01*
X88176D02*
X99670Y46325D01*
X99670Y46325D01*
X101470Y46325D02*
X101470Y46325D01*
X97051Y52544D02*
X101470Y48125D01*
X97048Y55827D02*
X97610Y56390D01*
X80800Y38100D02*
X80800D01*
X80800D02*
X85088Y42388D01*
X80557Y50199D02*
X85088Y45667D01*
X80557Y50199D02*
X80557Y50199D01*
X80557Y51999D02*
X80557Y51999D01*
X82357D02*
X93851Y40505D01*
X93851Y40505D01*
X85637Y55278D02*
X97130Y43785D01*
X85637Y55278D02*
X85637Y55278D01*
X85637Y57079D02*
X85637Y57079D01*
X87437D02*
X98930Y45585D01*
X98930Y45585D01*
X102210Y45585D02*
X102210Y45585D01*
X97787Y53287D02*
X102210Y48864D01*
X97787Y55087D02*
X98350Y55650D01*
X98350D01*
X77950Y36729D02*
X80060Y38840D01*
X78996Y36296D02*
X80800Y38100D01*
X102573Y117815D02*
X103000Y118242D01*
X101100D02*
X101527Y117815D01*
X103000Y118242D02*
Y118500D01*
X139913Y142346D02*
X140846Y141413D01*
X139480Y141300D02*
X139800Y140980D01*
X106555Y19320D02*
X107016Y18858D01*
Y18071D02*
Y18858D01*
X105047Y18071D02*
Y18858D01*
X105509Y19320D01*
Y30588D01*
X106555Y19320D02*
Y30155D01*
X101100Y118242D02*
Y118500D01*
X77950Y19320D02*
Y36729D01*
X77488Y18858D02*
X77950Y19320D01*
X77488Y18071D02*
Y18858D01*
X78996Y19320D02*
Y36296D01*
X79457Y18071D02*
Y18858D01*
X78996Y19320D02*
X79457Y18858D01*
X81204Y102000D02*
X86027Y106823D01*
X72044Y39570D02*
Y40332D01*
X82683Y102000D02*
X87073Y106390D01*
X73090Y39570D02*
Y40332D01*
X72044Y19320D02*
Y39200D01*
X73090Y19320D02*
Y39200D01*
X110500Y155742D02*
Y156000D01*
X108600Y155742D02*
X109027Y155315D01*
X108600Y155742D02*
Y156000D01*
X110073Y155315D02*
X110500Y155742D01*
X110073Y153981D02*
Y155315D01*
X109027Y154415D02*
Y155315D01*
X86027Y106823D02*
Y111415D01*
X87073Y106390D02*
Y111415D01*
X72044Y39200D02*
Y39570D01*
X73090Y39200D02*
Y39570D01*
X93101Y8039D02*
X100649Y15587D01*
X33360Y13660D02*
X36990Y10031D01*
X29960Y12360D02*
X34282Y8039D01*
X88754Y11077D02*
X93698Y16020D01*
X37423Y11077D02*
X88754D01*
X30700Y13100D02*
X34715Y9085D01*
X34282Y8039D02*
X93101D01*
X29960Y12360D02*
X29960D01*
X33360Y13660D02*
X33360D01*
X89188Y10031D02*
X94744Y15587D01*
X92668Y9085D02*
X99603Y16020D01*
X34715Y9085D02*
X92668D01*
X34100Y14400D02*
X37423Y11077D01*
X36990Y10031D02*
X89188D01*
X29654Y12667D02*
X29960Y12360D01*
X29654Y12667D02*
Y107833D01*
X30700Y13100D02*
Y107400D01*
X65926Y136474D02*
X65967Y136433D01*
X65700Y138342D02*
Y138600D01*
X65474Y136474D02*
X65926D01*
X64734Y137376D02*
X65700Y138342D01*
X33054Y105533D02*
X64734Y137214D01*
X34100Y105100D02*
X65474Y136474D01*
X64734Y137214D02*
Y137376D01*
X33054Y13967D02*
X33360Y13660D01*
X95205Y17284D02*
Y18071D01*
X94744Y15587D02*
Y16822D01*
X95205Y17284D01*
X93236D02*
X93698Y16822D01*
Y16020D02*
Y16822D01*
X93236Y17284D02*
Y18071D01*
X99142Y17284D02*
X99603Y16822D01*
X99142Y17284D02*
Y18071D01*
X99603Y16020D02*
Y16822D01*
X101110Y17284D02*
Y18071D01*
X100649Y16822D02*
X101110Y17284D01*
X100649Y15587D02*
Y16822D01*
X85600Y111842D02*
Y112100D01*
X87500Y111842D02*
Y112100D01*
X87073Y111415D02*
X87500Y111842D01*
X85600D02*
X86027Y111415D01*
X73090Y19320D02*
X73551Y18858D01*
X71583D02*
X72044Y19320D01*
X71583Y18071D02*
Y18858D01*
X73551Y18071D02*
Y18858D01*
D27*
X97051Y52544D02*
D03*
D28*
X55000Y33433D02*
Y33600D01*
X54693Y28504D02*
Y33126D01*
X55000Y33433D01*
X88700Y150400D02*
X104193D01*
X104584Y150791D02*
X156183D01*
X156900Y150074D01*
X104193Y150400D02*
X104584Y150791D01*
X71887Y124518D02*
X74600Y127232D01*
X71200Y124400D02*
X71318Y124518D01*
X71887D01*
X83333Y132500D02*
X83500D01*
X99500Y123167D02*
X100469Y124136D01*
X99500Y123000D02*
Y123167D01*
X100469Y124136D02*
Y126600D01*
X100118Y131050D02*
Y133882D01*
Y131050D02*
X100469Y130700D01*
X100000Y134000D02*
X100118Y133882D01*
X78600Y155900D02*
X81832D01*
X82857Y19395D02*
Y23657D01*
X122700Y63500D02*
Y111200D01*
X82857Y23657D02*
X122700Y63500D01*
X83394Y18071D02*
Y18858D01*
X85362Y18071D02*
Y21938D01*
X85300Y22000D02*
X85362Y21938D01*
X82857Y19395D02*
X83394Y18858D01*
X91268Y18071D02*
Y22168D01*
X91300Y22200D01*
X106200Y127700D02*
X122700Y111200D01*
X96668Y156000D02*
X96768Y156100D01*
X101300D01*
X101400Y156200D01*
X112921Y29417D02*
X156900Y73396D01*
Y150074D01*
X112921Y18071D02*
Y29417D01*
X121937Y28504D02*
X125496D01*
X126000Y28000D01*
X58900Y37300D02*
X63709Y32491D01*
Y18071D02*
Y32491D01*
X51900Y37300D02*
X58900D01*
X48200Y41000D02*
X51900Y37300D01*
X48200Y41000D02*
Y80700D01*
X89500Y155500D02*
X89618Y155618D01*
X92350D02*
X92731Y156000D01*
X89618Y155618D02*
X92350D01*
X86668Y155900D02*
X86950Y155618D01*
X89382D01*
X89500Y155500D01*
X78500Y124000D02*
X79200Y124700D01*
Y127331D01*
Y131269D02*
X82101D01*
X83333Y132500D01*
X79150Y131219D02*
X79200Y131269D01*
X74600Y131168D02*
X74650Y131219D01*
X79150D01*
X100000Y133833D02*
Y134000D01*
X92600Y126400D02*
X95432D01*
X92500Y126500D02*
X92600Y126400D01*
X92500Y130500D02*
X92700Y130700D01*
X95432D01*
X140000Y37733D02*
Y40500D01*
X138267Y36000D02*
X140000Y37733D01*
X77400Y109700D02*
X79800Y112100D01*
X138667Y29100D02*
X141467Y31900D01*
X153100D01*
X138267Y36000D02*
X138467Y35800D01*
Y29300D02*
X138667Y29100D01*
X138467Y29300D02*
Y35800D01*
X131000Y36000D02*
X134133D01*
X130000Y35000D02*
X131000Y36000D01*
X134533Y24048D02*
Y29100D01*
X133071Y18071D02*
X134635Y19635D01*
X134533Y24048D02*
X134635Y23946D01*
Y19635D02*
Y23946D01*
X118827Y18071D02*
X133071D01*
X55520Y15000D02*
X57803Y17284D01*
X55000Y15000D02*
X55520D01*
X57803Y17284D02*
Y18071D01*
X65677Y13177D02*
Y18071D01*
X65000Y12500D02*
X65677Y13177D01*
X67500Y22500D02*
X67646Y22354D01*
Y18071D02*
Y22354D01*
X87500Y12500D02*
Y12814D01*
X87331Y12983D02*
Y18071D01*
Y12983D02*
X87500Y12814D01*
X118827Y18071D02*
Y21327D01*
X120000Y22500D01*
X110953Y13453D02*
Y18071D01*
X110000Y12500D02*
X110953Y13453D01*
X108300Y5800D02*
X114740Y12240D01*
Y17922D01*
X34800Y5800D02*
X108300D01*
X114740Y17922D02*
X114890Y18071D01*
X28200Y12400D02*
X34800Y5800D01*
X28200Y12400D02*
Y120000D01*
X57600Y149400D01*
X116858Y18071D02*
X117000Y17930D01*
Y14100D02*
Y17930D01*
X108942Y18113D02*
Y22458D01*
Y18113D02*
X108984Y18071D01*
X108900Y22500D02*
X108942Y22458D01*
X103000Y22500D02*
X103079Y22421D01*
Y18071D02*
Y22421D01*
X97173Y18071D02*
X97187Y18084D01*
Y22287D01*
X97200Y22300D01*
X89299Y18071D02*
X91268D01*
X81425Y18071D02*
X81463Y18034D01*
Y14137D02*
Y18034D01*
Y14137D02*
X81500Y14100D01*
X75510Y18061D02*
X75520Y18071D01*
X75510Y14010D02*
Y18061D01*
X75500Y14000D02*
X75510Y14010D01*
X69607Y18064D02*
X69614Y18071D01*
X69607Y14007D02*
Y18064D01*
X69600Y14000D02*
X69607Y14007D01*
X59786Y14514D02*
Y18057D01*
Y14514D02*
X59800Y14500D01*
X59772Y18071D02*
X59786Y18057D01*
X45900Y33200D02*
Y84900D01*
Y28653D02*
Y33200D01*
X45700Y33400D02*
X45900Y33200D01*
X37400Y33400D02*
X45700D01*
X45900Y84900D02*
X88500Y127500D01*
Y128200D01*
X45100Y22600D02*
X61000D01*
X61740Y21860D01*
Y18071D02*
Y21860D01*
X77200Y109700D02*
X77400D01*
X48200Y80700D02*
X77200Y109700D01*
D29*
X55000Y33600D02*
D03*
X109700Y149200D02*
D03*
X113900Y141600D02*
D03*
X119500Y143900D02*
D03*
X94700Y148809D02*
D03*
X76700Y149600D02*
D03*
X71200Y124400D02*
D03*
X84700Y129500D02*
D03*
X83500Y132500D02*
D03*
X95000Y134200D02*
D03*
X78600Y155900D02*
D03*
X85300Y22000D02*
D03*
X91300Y22200D02*
D03*
X101400Y156200D02*
D03*
X119233Y141733D02*
D03*
X126000Y28000D02*
D03*
X101100Y118500D02*
D03*
X103000D02*
D03*
X89500Y155500D02*
D03*
X88700Y150400D02*
D03*
X108000Y140500D02*
D03*
X78500Y124000D02*
D03*
X110500Y156000D02*
D03*
X108600D02*
D03*
X76000Y136500D02*
D03*
X99500Y123000D02*
D03*
X92500Y126500D02*
D03*
Y130500D02*
D03*
X118000Y137500D02*
D03*
X110000Y133000D02*
D03*
X104500Y133500D02*
D03*
X100000Y134000D02*
D03*
X102500Y142000D02*
D03*
X98000Y142500D02*
D03*
X76500Y145000D02*
D03*
X140000Y40500D02*
D03*
X79800Y112100D02*
D03*
X130000Y35000D02*
D03*
X55000Y15000D02*
D03*
X65000Y12500D02*
D03*
X67500Y22500D02*
D03*
X87500Y12500D02*
D03*
X120000Y22500D02*
D03*
X110000Y12500D02*
D03*
X57600Y149400D02*
D03*
X106200Y127700D02*
D03*
X117000Y14100D02*
D03*
X108900Y22500D02*
D03*
X103000D02*
D03*
X97200Y22300D02*
D03*
X81500Y14100D02*
D03*
X75500Y14000D02*
D03*
X69600D02*
D03*
X59800Y14500D02*
D03*
X65700Y138600D02*
D03*
X65967Y136433D02*
D03*
X88500Y128200D02*
D03*
X87500Y112100D02*
D03*
X85600D02*
D03*
M02*
