G04*
G04 #@! TF.GenerationSoftware,Altium Limited,Altium Designer,22.10.1 (41)*
G04*
G04 Layer_Physical_Order=4*
G04 Layer_Color=16440176*
%FSLAX25Y25*%
%MOIN*%
G70*
G04*
G04 #@! TF.SameCoordinates,B1027B8B-ED15-4388-B4B1-B9FDCE3A8B77*
G04*
G04*
G04 #@! TF.FilePolarity,Positive*
G04*
G01*
G75*
%ADD29C,0.01500*%
G36*
X167500Y82500D02*
X207500D01*
Y2500D01*
X102500D01*
Y21169D01*
X102771Y21350D01*
X103229D01*
X103651Y21525D01*
X103975Y21849D01*
X104150Y22271D01*
Y22729D01*
X103975Y23151D01*
X103651Y23475D01*
X103229Y23650D01*
X102771D01*
X102500Y23831D01*
Y117169D01*
X102771Y117350D01*
X103229D01*
X103651Y117525D01*
X103975Y117849D01*
X104150Y118271D01*
Y118729D01*
X103975Y119151D01*
X103651Y119475D01*
X103229Y119650D01*
X102771D01*
X102500Y119831D01*
Y140850D01*
X102729D01*
X103151Y141025D01*
X103475Y141349D01*
X103650Y141771D01*
Y142229D01*
X103475Y142651D01*
X103151Y142975D01*
X102729Y143150D01*
X102271D01*
X101849Y142975D01*
X101525Y142651D01*
X101462Y142500D01*
X99150D01*
Y142729D01*
X98975Y143151D01*
X98651Y143475D01*
X98229Y143650D01*
X97771D01*
X97349Y143475D01*
X97025Y143151D01*
X96850Y142729D01*
Y142500D01*
X2500D01*
Y157500D01*
X78151D01*
X78250Y157000D01*
X77949Y156875D01*
X77625Y156551D01*
X77450Y156129D01*
Y155671D01*
X77625Y155249D01*
X77949Y154925D01*
X78371Y154750D01*
X78829D01*
X79251Y154925D01*
X79575Y155249D01*
X79750Y155671D01*
Y156129D01*
X79575Y156551D01*
X79251Y156875D01*
X78949Y157000D01*
X79049Y157500D01*
X100366D01*
X100574Y157000D01*
X100425Y156851D01*
X100250Y156429D01*
Y155971D01*
X100425Y155549D01*
X100749Y155225D01*
X101171Y155050D01*
X101629D01*
X102051Y155225D01*
X102375Y155549D01*
X102550Y155971D01*
Y156429D01*
X102375Y156851D01*
X102226Y157000D01*
X102433Y157500D01*
X107910D01*
X108009Y157000D01*
X107949Y156975D01*
X107625Y156651D01*
X107450Y156229D01*
Y155771D01*
X107625Y155349D01*
X107949Y155025D01*
X108371Y154850D01*
X108829D01*
X109251Y155025D01*
X109550Y155324D01*
X109849Y155025D01*
X110271Y154850D01*
X110729D01*
X111151Y155025D01*
X111475Y155349D01*
X111650Y155771D01*
Y156229D01*
X111475Y156651D01*
X111151Y156975D01*
X111091Y157000D01*
X111190Y157500D01*
X167500D01*
Y82500D01*
D02*
G37*
G36*
X98284Y142003D02*
X98314Y141958D01*
X98350Y141914D01*
X98383Y141875D01*
X98417Y141842D01*
X98442Y141814D01*
X98453Y141806D01*
X98461Y141798D01*
X98464Y141795D01*
X98466Y141792D01*
X98525Y141745D01*
X98583Y141701D01*
X98638Y141662D01*
X98694Y141632D01*
X98741Y141604D01*
X98760Y141593D01*
X98777Y141585D01*
X98791Y141576D01*
X98802Y141574D01*
X98807Y141568D01*
X98810D01*
Y141341D01*
X98769Y141357D01*
X98727Y141377D01*
X98685Y141396D01*
X98647Y141416D01*
X98613Y141432D01*
X98586Y141446D01*
X98569Y141457D01*
X98566Y141460D01*
X98563D01*
X98514Y141490D01*
X98469Y141521D01*
X98431Y141549D01*
X98400Y141574D01*
X98372Y141593D01*
X98356Y141610D01*
X98342Y141621D01*
X98339Y141623D01*
Y140125D01*
X98104D01*
Y142050D01*
X98256D01*
X98284Y142003D01*
D02*
G37*
G36*
X99563Y140720D02*
Y140662D01*
X99569Y140612D01*
X99572Y140571D01*
X99577Y140538D01*
X99583Y140513D01*
X99586Y140493D01*
X99591Y140482D01*
Y140479D01*
X99602Y140452D01*
X99616Y140429D01*
X99633Y140410D01*
X99647Y140391D01*
X99663Y140380D01*
X99674Y140368D01*
X99683Y140363D01*
X99685Y140360D01*
X99713Y140346D01*
X99741Y140335D01*
X99768Y140330D01*
X99793Y140324D01*
X99818Y140321D01*
X99835Y140319D01*
X99852D01*
X99896Y140321D01*
X99937Y140332D01*
X99971Y140344D01*
X100001Y140360D01*
X100023Y140374D01*
X100040Y140388D01*
X100051Y140396D01*
X100054Y140399D01*
X100068Y140416D01*
X100079Y140435D01*
X100095Y140479D01*
X100112Y140529D01*
X100120Y140579D01*
X100128Y140626D01*
Y140646D01*
X100131Y140662D01*
X100134Y140679D01*
Y140690D01*
Y140695D01*
Y140698D01*
X100364Y140665D01*
Y140612D01*
X100361Y140565D01*
X100353Y140518D01*
X100347Y140477D01*
X100336Y140438D01*
X100325Y140404D01*
X100314Y140371D01*
X100303Y140344D01*
X100289Y140319D01*
X100278Y140296D01*
X100267Y140277D01*
X100256Y140263D01*
X100248Y140252D01*
X100242Y140241D01*
X100239Y140238D01*
X100237Y140235D01*
X100209Y140211D01*
X100181Y140188D01*
X100151Y140169D01*
X100118Y140152D01*
X100054Y140128D01*
X99993Y140111D01*
X99935Y140100D01*
X99913Y140097D01*
X99890Y140094D01*
X99874Y140092D01*
X99849D01*
X99788Y140094D01*
X99732Y140103D01*
X99683Y140114D01*
X99638Y140128D01*
X99602Y140139D01*
X99577Y140150D01*
X99561Y140158D01*
X99555Y140161D01*
X99511Y140188D01*
X99472Y140222D01*
X99442Y140255D01*
X99414Y140285D01*
X99395Y140316D01*
X99381Y140338D01*
X99372Y140355D01*
X99370Y140357D01*
Y140360D01*
X99350Y140416D01*
X99334Y140474D01*
X99322Y140538D01*
X99317Y140598D01*
X99311Y140651D01*
Y140673D01*
X99309Y140695D01*
Y140712D01*
Y140723D01*
Y140731D01*
Y140734D01*
Y142042D01*
X99563D01*
Y140720D01*
D02*
G37*
G36*
X97500Y23498D02*
X97429Y23450D01*
X96971D01*
X96549Y23275D01*
X96225Y22951D01*
X96050Y22529D01*
Y22071D01*
X96225Y21649D01*
X96549Y21325D01*
X96971Y21150D01*
X97429D01*
X97500Y21102D01*
Y2500D01*
X5000D01*
Y140000D01*
X64820D01*
X64899Y139854D01*
X64974Y139500D01*
X64725Y139251D01*
X64550Y138829D01*
Y138371D01*
X64725Y137949D01*
X65049Y137625D01*
X65008Y137101D01*
X64992Y137085D01*
X64817Y136662D01*
Y136205D01*
X64992Y135782D01*
X65315Y135459D01*
X65738Y135283D01*
X66195D01*
X66618Y135459D01*
X66941Y135782D01*
X67117Y136205D01*
Y136662D01*
X66941Y137085D01*
X66618Y137408D01*
X66659Y137933D01*
X66675Y137949D01*
X66850Y138371D01*
Y138829D01*
X66675Y139251D01*
X66426Y139500D01*
X66501Y139854D01*
X66580Y140000D01*
X97500D01*
Y23498D01*
D02*
G37*
%LPC*%
G36*
X88929Y151550D02*
X88471D01*
X88049Y151375D01*
X87725Y151051D01*
X87550Y150629D01*
Y150171D01*
X87725Y149749D01*
X88049Y149425D01*
X88471Y149250D01*
X88929D01*
X89351Y149425D01*
X89675Y149749D01*
X89850Y150171D01*
Y150629D01*
X89675Y151051D01*
X89351Y151375D01*
X88929Y151550D01*
D02*
G37*
G36*
X76929Y150750D02*
X76471D01*
X76049Y150575D01*
X75725Y150251D01*
X75550Y149829D01*
Y149371D01*
X75725Y148949D01*
X76049Y148625D01*
X76471Y148450D01*
X76929D01*
X77351Y148625D01*
X77675Y148949D01*
X77850Y149371D01*
Y149829D01*
X77675Y150251D01*
X77351Y150575D01*
X76929Y150750D01*
D02*
G37*
G36*
X57829Y150550D02*
X57371D01*
X56949Y150375D01*
X56625Y150051D01*
X56450Y149629D01*
Y149171D01*
X56625Y148749D01*
X56949Y148425D01*
X57371Y148250D01*
X57829D01*
X58251Y148425D01*
X58575Y148749D01*
X58750Y149171D01*
Y149629D01*
X58575Y150051D01*
X58251Y150375D01*
X57829Y150550D01*
D02*
G37*
G36*
X109929Y150350D02*
X109471D01*
X109049Y150175D01*
X108725Y149851D01*
X108550Y149429D01*
Y148971D01*
X108725Y148549D01*
X109049Y148225D01*
X109471Y148050D01*
X109929D01*
X110351Y148225D01*
X110675Y148549D01*
X110850Y148971D01*
Y149429D01*
X110675Y149851D01*
X110351Y150175D01*
X109929Y150350D01*
D02*
G37*
G36*
X94929Y149959D02*
X94471D01*
X94049Y149784D01*
X93725Y149460D01*
X93550Y149038D01*
Y148580D01*
X93725Y148158D01*
X94049Y147834D01*
X94471Y147659D01*
X94929D01*
X95351Y147834D01*
X95675Y148158D01*
X95850Y148580D01*
Y149038D01*
X95675Y149460D01*
X95351Y149784D01*
X94929Y149959D01*
D02*
G37*
G36*
X76729Y146150D02*
X76271D01*
X75849Y145975D01*
X75525Y145651D01*
X75350Y145229D01*
Y144771D01*
X75525Y144349D01*
X75849Y144025D01*
X76271Y143850D01*
X76729D01*
X77151Y144025D01*
X77475Y144349D01*
X77650Y144771D01*
Y145229D01*
X77475Y145651D01*
X77151Y145975D01*
X76729Y146150D01*
D02*
G37*
G36*
X119729Y145050D02*
X119271D01*
X118849Y144875D01*
X118525Y144551D01*
X118350Y144129D01*
Y143671D01*
X118525Y143249D01*
X118541Y143233D01*
X118582Y142708D01*
X118259Y142385D01*
X118083Y141962D01*
Y141505D01*
X118259Y141082D01*
X118582Y140759D01*
X119005Y140583D01*
X119462D01*
X119885Y140759D01*
X120208Y141082D01*
X120383Y141505D01*
Y141962D01*
X120208Y142385D01*
X120192Y142401D01*
X120151Y142925D01*
X120475Y143249D01*
X120650Y143671D01*
Y144129D01*
X120475Y144551D01*
X120151Y144875D01*
X119729Y145050D01*
D02*
G37*
G36*
X114129Y142750D02*
X113671D01*
X113249Y142575D01*
X112925Y142251D01*
X112750Y141829D01*
Y141371D01*
X112925Y140949D01*
X113249Y140625D01*
X113671Y140450D01*
X114129D01*
X114551Y140625D01*
X114875Y140949D01*
X115050Y141371D01*
Y141829D01*
X114875Y142251D01*
X114551Y142575D01*
X114129Y142750D01*
D02*
G37*
G36*
X108229Y141650D02*
X107771D01*
X107349Y141475D01*
X107025Y141151D01*
X106850Y140729D01*
Y140271D01*
X107025Y139849D01*
X107349Y139525D01*
X107771Y139350D01*
X108229D01*
X108651Y139525D01*
X108975Y139849D01*
X109150Y140271D01*
Y140729D01*
X108975Y141151D01*
X108651Y141475D01*
X108229Y141650D01*
D02*
G37*
G36*
X118229Y138650D02*
X117771D01*
X117349Y138475D01*
X117025Y138151D01*
X116850Y137729D01*
Y137271D01*
X117025Y136849D01*
X117349Y136525D01*
X117771Y136350D01*
X118229D01*
X118651Y136525D01*
X118975Y136849D01*
X119150Y137271D01*
Y137729D01*
X118975Y138151D01*
X118651Y138475D01*
X118229Y138650D01*
D02*
G37*
G36*
X104729Y134650D02*
X104271D01*
X103849Y134475D01*
X103525Y134151D01*
X103350Y133729D01*
Y133271D01*
X103525Y132849D01*
X103849Y132525D01*
X104271Y132350D01*
X104729D01*
X105151Y132525D01*
X105475Y132849D01*
X105650Y133271D01*
Y133729D01*
X105475Y134151D01*
X105151Y134475D01*
X104729Y134650D01*
D02*
G37*
G36*
X110229Y134150D02*
X109771D01*
X109349Y133975D01*
X109025Y133651D01*
X108850Y133229D01*
Y132771D01*
X109025Y132349D01*
X109349Y132025D01*
X109771Y131850D01*
X110229D01*
X110651Y132025D01*
X110975Y132349D01*
X111150Y132771D01*
Y133229D01*
X110975Y133651D01*
X110651Y133975D01*
X110229Y134150D01*
D02*
G37*
G36*
X106429Y128850D02*
X105971D01*
X105549Y128675D01*
X105225Y128351D01*
X105050Y127929D01*
Y127471D01*
X105225Y127049D01*
X105549Y126725D01*
X105971Y126550D01*
X106429D01*
X106851Y126725D01*
X107175Y127049D01*
X107350Y127471D01*
Y127929D01*
X107175Y128351D01*
X106851Y128675D01*
X106429Y128850D01*
D02*
G37*
G36*
X140229Y41650D02*
X139771D01*
X139349Y41475D01*
X139025Y41151D01*
X138850Y40729D01*
Y40271D01*
X139025Y39849D01*
X139349Y39525D01*
X139771Y39350D01*
X140229D01*
X140651Y39525D01*
X140975Y39849D01*
X141150Y40271D01*
Y40729D01*
X140975Y41151D01*
X140651Y41475D01*
X140229Y41650D01*
D02*
G37*
G36*
X130229Y36150D02*
X129771D01*
X129349Y35975D01*
X129025Y35651D01*
X128850Y35229D01*
Y34771D01*
X129025Y34349D01*
X129349Y34025D01*
X129771Y33850D01*
X130229D01*
X130651Y34025D01*
X130975Y34349D01*
X131150Y34771D01*
Y35229D01*
X130975Y35651D01*
X130651Y35975D01*
X130229Y36150D01*
D02*
G37*
G36*
X126229Y29150D02*
X125771D01*
X125349Y28975D01*
X125025Y28651D01*
X124850Y28229D01*
Y27771D01*
X125025Y27349D01*
X125349Y27025D01*
X125771Y26850D01*
X126229D01*
X126651Y27025D01*
X126975Y27349D01*
X127150Y27771D01*
Y28229D01*
X126975Y28651D01*
X126651Y28975D01*
X126229Y29150D01*
D02*
G37*
G36*
X120229Y23650D02*
X119771D01*
X119349Y23475D01*
X119025Y23151D01*
X118850Y22729D01*
Y22271D01*
X119025Y21849D01*
X119349Y21525D01*
X119771Y21350D01*
X120229D01*
X120651Y21525D01*
X120975Y21849D01*
X121150Y22271D01*
Y22729D01*
X120975Y23151D01*
X120651Y23475D01*
X120229Y23650D01*
D02*
G37*
G36*
X109129D02*
X108671D01*
X108249Y23475D01*
X107925Y23151D01*
X107750Y22729D01*
Y22271D01*
X107925Y21849D01*
X108249Y21525D01*
X108671Y21350D01*
X109129D01*
X109551Y21525D01*
X109875Y21849D01*
X110050Y22271D01*
Y22729D01*
X109875Y23151D01*
X109551Y23475D01*
X109129Y23650D01*
D02*
G37*
G36*
X117229Y15250D02*
X116771D01*
X116349Y15075D01*
X116025Y14751D01*
X115850Y14329D01*
Y13871D01*
X116025Y13449D01*
X116349Y13125D01*
X116771Y12950D01*
X117229D01*
X117651Y13125D01*
X117975Y13449D01*
X118150Y13871D01*
Y14329D01*
X117975Y14751D01*
X117651Y15075D01*
X117229Y15250D01*
D02*
G37*
G36*
X76229Y137650D02*
X75771D01*
X75349Y137475D01*
X75025Y137151D01*
X74850Y136729D01*
Y136271D01*
X75025Y135849D01*
X75349Y135525D01*
X75771Y135350D01*
X76229D01*
X76651Y135525D01*
X76975Y135849D01*
X77150Y136271D01*
Y136729D01*
X76975Y137151D01*
X76651Y137475D01*
X76229Y137650D01*
D02*
G37*
G36*
X95229Y135350D02*
X94771D01*
X94349Y135175D01*
X94025Y134851D01*
X93850Y134429D01*
Y133971D01*
X94025Y133549D01*
X94349Y133225D01*
X94771Y133050D01*
X95229D01*
X95651Y133225D01*
X95975Y133549D01*
X96150Y133971D01*
Y134429D01*
X95975Y134851D01*
X95651Y135175D01*
X95229Y135350D01*
D02*
G37*
G36*
X83729Y133650D02*
X83271D01*
X82849Y133475D01*
X82525Y133151D01*
X82350Y132729D01*
Y132271D01*
X82525Y131849D01*
X82849Y131525D01*
X83271Y131350D01*
X83729D01*
X84151Y131525D01*
X84475Y131849D01*
X84650Y132271D01*
Y132729D01*
X84475Y133151D01*
X84151Y133475D01*
X83729Y133650D01*
D02*
G37*
G36*
X84929Y130650D02*
X84471D01*
X84049Y130475D01*
X83725Y130151D01*
X83550Y129729D01*
Y129271D01*
X83725Y128849D01*
X84049Y128525D01*
X84471Y128350D01*
X84929D01*
X85351Y128525D01*
X85675Y128849D01*
X85850Y129271D01*
Y129729D01*
X85675Y130151D01*
X85351Y130475D01*
X84929Y130650D01*
D02*
G37*
G36*
X88729Y129350D02*
X88271D01*
X87849Y129175D01*
X87525Y128851D01*
X87350Y128429D01*
Y127971D01*
X87525Y127549D01*
X87849Y127225D01*
X88271Y127050D01*
X88729D01*
X89151Y127225D01*
X89475Y127549D01*
X89650Y127971D01*
Y128429D01*
X89475Y128851D01*
X89151Y129175D01*
X88729Y129350D01*
D02*
G37*
G36*
X71429Y125550D02*
X70971D01*
X70549Y125375D01*
X70225Y125051D01*
X70050Y124629D01*
Y124171D01*
X70225Y123749D01*
X70549Y123425D01*
X70971Y123250D01*
X71429D01*
X71851Y123425D01*
X72175Y123749D01*
X72350Y124171D01*
Y124629D01*
X72175Y125051D01*
X71851Y125375D01*
X71429Y125550D01*
D02*
G37*
G36*
X78729Y125150D02*
X78271D01*
X77849Y124975D01*
X77525Y124651D01*
X77350Y124229D01*
Y123771D01*
X77525Y123349D01*
X77849Y123025D01*
X78271Y122850D01*
X78729D01*
X79151Y123025D01*
X79475Y123349D01*
X79650Y123771D01*
Y124229D01*
X79475Y124651D01*
X79151Y124975D01*
X78729Y125150D01*
D02*
G37*
G36*
X87729Y113250D02*
X87271D01*
X86849Y113075D01*
X86550Y112776D01*
X86251Y113075D01*
X85829Y113250D01*
X85371D01*
X84949Y113075D01*
X84625Y112751D01*
X84450Y112329D01*
Y111871D01*
X84625Y111449D01*
X84949Y111125D01*
X85371Y110950D01*
X85829D01*
X86251Y111125D01*
X86550Y111424D01*
X86849Y111125D01*
X87271Y110950D01*
X87729D01*
X88151Y111125D01*
X88475Y111449D01*
X88650Y111871D01*
Y112329D01*
X88475Y112751D01*
X88151Y113075D01*
X87729Y113250D01*
D02*
G37*
G36*
X80029D02*
X79571D01*
X79149Y113075D01*
X78825Y112751D01*
X78650Y112329D01*
Y111871D01*
X78825Y111449D01*
X79149Y111125D01*
X79571Y110950D01*
X80029D01*
X80451Y111125D01*
X80775Y111449D01*
X80950Y111871D01*
Y112329D01*
X80775Y112751D01*
X80451Y113075D01*
X80029Y113250D01*
D02*
G37*
G36*
X55229Y34750D02*
X54771D01*
X54349Y34575D01*
X54025Y34251D01*
X53850Y33829D01*
Y33371D01*
X54025Y32949D01*
X54349Y32625D01*
X54771Y32450D01*
X55229D01*
X55651Y32625D01*
X55975Y32949D01*
X56150Y33371D01*
Y33829D01*
X55975Y34251D01*
X55651Y34575D01*
X55229Y34750D01*
D02*
G37*
G36*
X91529Y23350D02*
X91071D01*
X90649Y23175D01*
X90325Y22851D01*
X90150Y22429D01*
Y21971D01*
X90325Y21549D01*
X90649Y21225D01*
X91071Y21050D01*
X91529D01*
X91951Y21225D01*
X92275Y21549D01*
X92450Y21971D01*
Y22429D01*
X92275Y22851D01*
X91951Y23175D01*
X91529Y23350D01*
D02*
G37*
G36*
X85529Y23150D02*
X85071D01*
X84649Y22975D01*
X84325Y22651D01*
X84150Y22229D01*
Y21771D01*
X84325Y21349D01*
X84649Y21025D01*
X85071Y20850D01*
X85529D01*
X85951Y21025D01*
X86275Y21349D01*
X86450Y21771D01*
Y22229D01*
X86275Y22651D01*
X85951Y22975D01*
X85529Y23150D01*
D02*
G37*
G36*
X55229Y16150D02*
X54771D01*
X54349Y15975D01*
X54025Y15651D01*
X53850Y15229D01*
Y14771D01*
X54025Y14349D01*
X54349Y14025D01*
X54771Y13850D01*
X55229D01*
X55651Y14025D01*
X55975Y14349D01*
X56150Y14771D01*
Y15229D01*
X55975Y15651D01*
X55651Y15975D01*
X55229Y16150D01*
D02*
G37*
G36*
X60029Y15650D02*
X59571D01*
X59149Y15475D01*
X58825Y15151D01*
X58650Y14729D01*
Y14271D01*
X58825Y13849D01*
X59149Y13525D01*
X59571Y13350D01*
X60029D01*
X60451Y13525D01*
X60775Y13849D01*
X60950Y14271D01*
Y14729D01*
X60775Y15151D01*
X60451Y15475D01*
X60029Y15650D01*
D02*
G37*
G36*
X81729Y15250D02*
X81271D01*
X80849Y15075D01*
X80525Y14751D01*
X80350Y14329D01*
Y13871D01*
X80525Y13449D01*
X80849Y13125D01*
X81271Y12950D01*
X81729D01*
X82151Y13125D01*
X82475Y13449D01*
X82650Y13871D01*
Y14329D01*
X82475Y14751D01*
X82151Y15075D01*
X81729Y15250D01*
D02*
G37*
G36*
X75729Y15150D02*
X75271D01*
X74849Y14975D01*
X74525Y14651D01*
X74350Y14229D01*
Y13771D01*
X74525Y13349D01*
X74849Y13025D01*
X75271Y12850D01*
X75729D01*
X76151Y13025D01*
X76475Y13349D01*
X76650Y13771D01*
Y14229D01*
X76475Y14651D01*
X76151Y14975D01*
X75729Y15150D01*
D02*
G37*
G36*
X69829D02*
X69371D01*
X68949Y14975D01*
X68625Y14651D01*
X68450Y14229D01*
Y13771D01*
X68625Y13349D01*
X68949Y13025D01*
X69371Y12850D01*
X69829D01*
X70251Y13025D01*
X70575Y13349D01*
X70750Y13771D01*
Y14229D01*
X70575Y14651D01*
X70251Y14975D01*
X69829Y15150D01*
D02*
G37*
G36*
X87729Y13650D02*
X87271D01*
X86849Y13475D01*
X86525Y13151D01*
X86350Y12729D01*
Y12271D01*
X86525Y11849D01*
X86849Y11525D01*
X87271Y11350D01*
X87729D01*
X88151Y11525D01*
X88475Y11849D01*
X88650Y12271D01*
Y12729D01*
X88475Y13151D01*
X88151Y13475D01*
X87729Y13650D01*
D02*
G37*
%LPD*%
D29*
X89500Y155500D02*
D03*
X92500Y126500D02*
D03*
Y130500D02*
D03*
X65000Y12500D02*
D03*
X67500Y22500D02*
D03*
X110000Y12500D02*
D03*
M02*
