G04*
G04 #@! TF.GenerationSoftware,Altium Limited,Altium Designer,22.10.1 (41)*
G04*
G04 Layer_Color=32896*
%FSLAX25Y25*%
%MOIN*%
G70*
G04*
G04 #@! TF.SameCoordinates,B1027B8B-ED15-4388-B4B1-B9FDCE3A8B77*
G04*
G04*
G04 #@! TF.FilePolarity,Positive*
G04*
G01*
G75*
%ADD37C,0.00100*%
G36*
X113714Y153109D02*
X113755Y153049D01*
X113803Y152990D01*
X113847Y152938D01*
X113891Y152894D01*
X113925Y152857D01*
X113940Y152846D01*
X113951Y152835D01*
X113954Y152831D01*
X113958Y152827D01*
X114036Y152764D01*
X114113Y152705D01*
X114188Y152654D01*
X114261Y152613D01*
X114324Y152576D01*
X114350Y152561D01*
X114373Y152550D01*
X114391Y152539D01*
X114406Y152535D01*
X114413Y152528D01*
X114417D01*
Y152224D01*
X114361Y152246D01*
X114306Y152272D01*
X114250Y152298D01*
X114199Y152324D01*
X114154Y152346D01*
X114117Y152365D01*
X114095Y152380D01*
X114091Y152383D01*
X114088D01*
X114021Y152424D01*
X113962Y152465D01*
X113910Y152502D01*
X113869Y152535D01*
X113832Y152561D01*
X113810Y152583D01*
X113792Y152598D01*
X113788Y152602D01*
Y150600D01*
X113473D01*
Y153172D01*
X113677D01*
X113714Y153109D01*
D02*
G37*
G36*
X115423Y151395D02*
Y151318D01*
X115431Y151251D01*
X115434Y151196D01*
X115442Y151151D01*
X115449Y151118D01*
X115453Y151092D01*
X115460Y151077D01*
Y151074D01*
X115475Y151037D01*
X115494Y151007D01*
X115516Y150981D01*
X115534Y150955D01*
X115557Y150940D01*
X115571Y150926D01*
X115582Y150918D01*
X115586Y150915D01*
X115623Y150896D01*
X115660Y150881D01*
X115697Y150874D01*
X115730Y150866D01*
X115764Y150863D01*
X115786Y150859D01*
X115808D01*
X115867Y150863D01*
X115923Y150877D01*
X115967Y150892D01*
X116008Y150915D01*
X116037Y150933D01*
X116060Y150952D01*
X116075Y150963D01*
X116078Y150966D01*
X116097Y150988D01*
X116112Y151014D01*
X116134Y151074D01*
X116156Y151140D01*
X116167Y151207D01*
X116178Y151270D01*
Y151296D01*
X116182Y151318D01*
X116185Y151340D01*
Y151355D01*
Y151362D01*
Y151366D01*
X116493Y151321D01*
Y151251D01*
X116489Y151188D01*
X116478Y151125D01*
X116470Y151070D01*
X116456Y151018D01*
X116441Y150974D01*
X116426Y150929D01*
X116411Y150892D01*
X116393Y150859D01*
X116378Y150829D01*
X116363Y150803D01*
X116348Y150785D01*
X116337Y150770D01*
X116330Y150755D01*
X116326Y150752D01*
X116322Y150748D01*
X116285Y150715D01*
X116248Y150685D01*
X116208Y150659D01*
X116163Y150637D01*
X116078Y150604D01*
X115997Y150582D01*
X115919Y150567D01*
X115890Y150563D01*
X115860Y150559D01*
X115838Y150556D01*
X115804D01*
X115723Y150559D01*
X115649Y150570D01*
X115582Y150585D01*
X115523Y150604D01*
X115475Y150619D01*
X115442Y150633D01*
X115420Y150644D01*
X115412Y150648D01*
X115353Y150685D01*
X115301Y150730D01*
X115261Y150774D01*
X115224Y150815D01*
X115198Y150855D01*
X115179Y150885D01*
X115168Y150907D01*
X115164Y150911D01*
Y150915D01*
X115138Y150988D01*
X115116Y151066D01*
X115101Y151151D01*
X115094Y151233D01*
X115087Y151303D01*
Y151333D01*
X115083Y151362D01*
Y151384D01*
Y151399D01*
Y151410D01*
Y151414D01*
Y153160D01*
X115423D01*
Y151395D01*
D02*
G37*
G36*
X98284Y142003D02*
X98314Y141958D01*
X98350Y141914D01*
X98383Y141875D01*
X98417Y141842D01*
X98442Y141814D01*
X98453Y141806D01*
X98461Y141798D01*
X98464Y141795D01*
X98466Y141792D01*
X98525Y141745D01*
X98583Y141701D01*
X98638Y141662D01*
X98694Y141632D01*
X98741Y141604D01*
X98760Y141593D01*
X98777Y141585D01*
X98791Y141576D01*
X98802Y141574D01*
X98807Y141568D01*
X98810D01*
Y141341D01*
X98769Y141357D01*
X98727Y141377D01*
X98685Y141396D01*
X98647Y141416D01*
X98613Y141432D01*
X98586Y141446D01*
X98569Y141457D01*
X98566Y141460D01*
X98563D01*
X98514Y141490D01*
X98469Y141521D01*
X98431Y141549D01*
X98400Y141574D01*
X98372Y141593D01*
X98356Y141610D01*
X98342Y141621D01*
X98339Y141623D01*
Y140125D01*
X98104D01*
Y142050D01*
X98256D01*
X98284Y142003D01*
D02*
G37*
G36*
X99563Y140720D02*
Y140662D01*
X99569Y140612D01*
X99572Y140571D01*
X99577Y140538D01*
X99583Y140513D01*
X99586Y140493D01*
X99591Y140482D01*
Y140479D01*
X99602Y140452D01*
X99616Y140429D01*
X99633Y140410D01*
X99647Y140391D01*
X99663Y140380D01*
X99674Y140368D01*
X99683Y140363D01*
X99685Y140360D01*
X99713Y140346D01*
X99741Y140335D01*
X99768Y140330D01*
X99793Y140324D01*
X99818Y140321D01*
X99835Y140319D01*
X99852D01*
X99896Y140321D01*
X99937Y140332D01*
X99971Y140344D01*
X100001Y140360D01*
X100023Y140374D01*
X100040Y140388D01*
X100051Y140396D01*
X100054Y140399D01*
X100068Y140416D01*
X100079Y140435D01*
X100095Y140479D01*
X100112Y140529D01*
X100120Y140579D01*
X100128Y140626D01*
Y140646D01*
X100131Y140662D01*
X100134Y140679D01*
Y140690D01*
Y140695D01*
Y140698D01*
X100364Y140665D01*
Y140612D01*
X100361Y140565D01*
X100353Y140518D01*
X100347Y140477D01*
X100336Y140438D01*
X100325Y140404D01*
X100314Y140371D01*
X100303Y140344D01*
X100289Y140319D01*
X100278Y140296D01*
X100267Y140277D01*
X100256Y140263D01*
X100248Y140252D01*
X100242Y140241D01*
X100239Y140238D01*
X100237Y140235D01*
X100209Y140211D01*
X100181Y140188D01*
X100151Y140169D01*
X100118Y140152D01*
X100054Y140128D01*
X99993Y140111D01*
X99935Y140100D01*
X99913Y140097D01*
X99890Y140094D01*
X99874Y140092D01*
X99849D01*
X99788Y140094D01*
X99732Y140103D01*
X99683Y140114D01*
X99638Y140128D01*
X99602Y140139D01*
X99577Y140150D01*
X99561Y140158D01*
X99555Y140161D01*
X99511Y140188D01*
X99472Y140222D01*
X99442Y140255D01*
X99414Y140285D01*
X99395Y140316D01*
X99381Y140338D01*
X99372Y140355D01*
X99370Y140357D01*
Y140360D01*
X99350Y140416D01*
X99334Y140474D01*
X99322Y140538D01*
X99317Y140598D01*
X99311Y140651D01*
Y140673D01*
X99309Y140695D01*
Y140712D01*
Y140723D01*
Y140731D01*
Y140734D01*
Y142042D01*
X99563D01*
Y140720D01*
D02*
G37*
D37*
X114464Y148492D02*
X116464Y146492D01*
Y134992D02*
Y146492D01*
X103464Y134992D02*
X116464D01*
X77464Y148492D02*
X114464D01*
X77464Y134992D02*
Y148492D01*
Y134992D02*
X103464D01*
M02*
