G04*
G04 #@! TF.GenerationSoftware,Altium Limited,Altium Designer,22.10.1 (41)*
G04*
G04 Layer_Physical_Order=2*
G04 Layer_Color=32768*
%FSLAX25Y25*%
%MOIN*%
G70*
G04*
G04 #@! TF.SameCoordinates,B1027B8B-ED15-4388-B4B1-B9FDCE3A8B77*
G04*
G04*
G04 #@! TF.FilePolarity,Negative*
G04*
G01*
G75*
%ADD30C,0.04000*%
%ADD31C,0.04800*%
G36*
X98284Y142003D02*
X98314Y141958D01*
X98350Y141914D01*
X98383Y141875D01*
X98417Y141842D01*
X98442Y141814D01*
X98453Y141806D01*
X98461Y141798D01*
X98464Y141795D01*
X98466Y141792D01*
X98525Y141745D01*
X98583Y141701D01*
X98638Y141662D01*
X98694Y141632D01*
X98741Y141604D01*
X98760Y141593D01*
X98777Y141585D01*
X98791Y141576D01*
X98802Y141574D01*
X98807Y141568D01*
X98810D01*
Y141341D01*
X98769Y141357D01*
X98727Y141377D01*
X98685Y141396D01*
X98647Y141416D01*
X98613Y141432D01*
X98586Y141446D01*
X98569Y141457D01*
X98566Y141460D01*
X98563D01*
X98514Y141490D01*
X98469Y141521D01*
X98431Y141549D01*
X98400Y141574D01*
X98372Y141593D01*
X98356Y141610D01*
X98342Y141621D01*
X98339Y141623D01*
Y140125D01*
X98104D01*
Y142050D01*
X98256D01*
X98284Y142003D01*
D02*
G37*
G36*
X99563Y140720D02*
Y140662D01*
X99569Y140612D01*
X99572Y140571D01*
X99577Y140538D01*
X99583Y140513D01*
X99586Y140493D01*
X99591Y140482D01*
Y140479D01*
X99602Y140452D01*
X99616Y140429D01*
X99633Y140410D01*
X99647Y140391D01*
X99663Y140380D01*
X99674Y140368D01*
X99683Y140363D01*
X99685Y140360D01*
X99713Y140346D01*
X99741Y140335D01*
X99768Y140330D01*
X99793Y140324D01*
X99818Y140321D01*
X99835Y140319D01*
X99852D01*
X99896Y140321D01*
X99937Y140332D01*
X99971Y140344D01*
X100001Y140360D01*
X100023Y140374D01*
X100040Y140388D01*
X100051Y140396D01*
X100054Y140399D01*
X100068Y140416D01*
X100079Y140435D01*
X100095Y140479D01*
X100112Y140529D01*
X100120Y140579D01*
X100128Y140626D01*
Y140646D01*
X100131Y140662D01*
X100134Y140679D01*
Y140690D01*
Y140695D01*
Y140698D01*
X100364Y140665D01*
Y140612D01*
X100361Y140565D01*
X100353Y140518D01*
X100347Y140477D01*
X100336Y140438D01*
X100325Y140404D01*
X100314Y140371D01*
X100303Y140344D01*
X100289Y140319D01*
X100278Y140296D01*
X100267Y140277D01*
X100256Y140263D01*
X100248Y140252D01*
X100242Y140241D01*
X100239Y140238D01*
X100237Y140235D01*
X100209Y140211D01*
X100181Y140188D01*
X100151Y140169D01*
X100118Y140152D01*
X100054Y140128D01*
X99993Y140111D01*
X99935Y140100D01*
X99913Y140097D01*
X99890Y140094D01*
X99874Y140092D01*
X99849D01*
X99788Y140094D01*
X99732Y140103D01*
X99683Y140114D01*
X99638Y140128D01*
X99602Y140139D01*
X99577Y140150D01*
X99561Y140158D01*
X99555Y140161D01*
X99511Y140188D01*
X99472Y140222D01*
X99442Y140255D01*
X99414Y140285D01*
X99395Y140316D01*
X99381Y140338D01*
X99372Y140355D01*
X99370Y140357D01*
Y140360D01*
X99350Y140416D01*
X99334Y140474D01*
X99322Y140538D01*
X99317Y140598D01*
X99311Y140651D01*
Y140673D01*
X99309Y140695D01*
Y140712D01*
Y140723D01*
Y140731D01*
Y140734D01*
Y142042D01*
X99563D01*
Y140720D01*
D02*
G37*
D30*
X0Y0D02*
Y160000D01*
X172500D01*
Y84800D02*
Y160000D01*
Y84800D02*
X210000D01*
Y0D02*
Y84800D01*
X0Y0D02*
X210000D01*
Y-200D02*
Y84800D01*
X0Y-200D02*
X210000D01*
D31*
X119500Y143900D02*
D03*
X76700Y149600D02*
D03*
X83500Y132500D02*
D03*
X119233Y141733D02*
D03*
X101100Y118500D02*
D03*
X103000D02*
D03*
X89500Y155500D02*
D03*
X88700Y150400D02*
D03*
X110500Y156000D02*
D03*
X108600D02*
D03*
X92500Y126500D02*
D03*
Y130500D02*
D03*
X110000Y133000D02*
D03*
X140000Y40500D02*
D03*
X79800Y112100D02*
D03*
X55000Y15000D02*
D03*
X65000Y12500D02*
D03*
X67500Y22500D02*
D03*
X87500Y12500D02*
D03*
X120000Y22500D02*
D03*
X110000Y12500D02*
D03*
X57600Y149400D02*
D03*
X106200Y127700D02*
D03*
X65700Y138600D02*
D03*
X65967Y136433D02*
D03*
X88500Y128200D02*
D03*
X87500Y112100D02*
D03*
X85600D02*
D03*
M02*
